PathFileType	4	(X/Y/Z)	c:/Users/goper/Files/vsCode/490R/osim_files/C10/C10_Slow_03.trc
DataRate	CameraRate	NumFrames	NumMarkers	Units                	OrigDataRate	OrigDataStartFrame	OrigNumFrames
250.00	250.00	5	36	mm	250.0	1186	3160
                Frame#	Time	LPSIS			LASIS			LTH1			LTH2			LTH3			LTH4			LLFE			LMFE			LSH1			LSH2			LSH3			LSH4			LLMAL			LMMAL			LCAL			LMTP5			LTOE			LMTP1			RPSIS			RASIS			RTH1			RTH2			RTH3			RTH4			RLFE			RMFE			RSH1			RSH2			RSH3			RSH4			RLMAL			RMMAL			RCAL			RMTP1			RTOE			RMTP5		
		X1	Y1	Z1	X2	Y2	Z2	X3	Y3	Z3	X4	Y4	Z4	X5	Y5	Z5	X6	Y6	Z6	X7	Y7	Z7	X8	Y8	Z8	X9	Y9	Z9	X10	Y10	Z10	X11	Y11	Z11	X12	Y12	Z12	X13	Y13	Z13	X14	Y14	Z14	X15	Y15	Z15	X16	Y16	Z16	X17	Y17	Z17	X18	Y18	Z18	X19	Y19	Z19	X20	Y20	Z20	X21	Y21	Z21	X22	Y22	Z22	X23	Y23	Z23	X24	Y24	Z24	X25	Y25	Z25	X26	Y26	Z26	X27	Y27	Z27	X28	Y28	Z28	X29	Y29	Z29	X30	Y30	Z30	X31	Y31	Z31	X32	Y32	Z32	X33	Y33	Z33	X34	Y34	Z34	X35	Y35	Z35	X36	Y36	Z36

1186	4.74000	666.91339	1007.52039	229.02815	514.35895	988.03137	361.61145	545.49652	750.10864	394.84540	532.32794	704.13275	390.43903	489.81821	762.44647	378.54172	485.12601	716.46014	372.27505	492.73169	466.04117	334.35291	0.00000	0.00000	0.00000	586.44843	444.48785	336.50430	623.16687	415.11151	342.58765	551.75781	393.16614	334.68350	590.58478	368.13339	326.80035	830.98816	238.25247	312.74454	0.00000	0.00000	0.00000	912.20087	264.99698	269.10599	828.71155	112.53759	322.12845	790.95935	72.90286	251.35985	824.94073	100.07536	214.02960	662.18463	1017.21216	146.95799	500.55215	1006.70795	27.25997	542.85529	738.98242	-17.13114	474.27835	711.44812	-10.27417	0.00000	0.00000	0.00000	0.00000	0.00000	0.00000	459.51593	484.56686	61.81092	484.98447	452.62070	214.44263	524.02594	386.92273	48.47555	516.53900	342.41696	50.79776	461.49014	389.07779	59.60878	466.46335	346.67899	56.14354	496.92038	83.92399	111.07378	467.35904	81.21011	193.06178	550.99115	40.48487	156.46832	355.52197	32.36310	174.72180	327.93716	51.34583	146.76147	377.18054	33.01587	84.07222
1187	4.74400	663.01904	1008.31580	228.44806	509.90454	988.44739	361.32849	539.69861	750.95892	394.58371	526.20404	704.98834	390.37915	485.44858	763.49176	378.48807	479.58591	717.73639	372.20401	483.78064	467.44196	334.52032	0.00000	0.00000	0.00000	577.11688	445.57587	336.49948	614.09735	416.18900	342.01175	542.25989	394.37906	334.82645	580.97729	369.28815	327.09573	820.69635	237.99153	312.46237	0.00000	0.00000	0.00000	902.48151	263.54233	268.48972	816.34607	112.59236	322.38556	778.09607	73.81687	252.00995	812.50604	99.64350	214.39590	658.13550	1018.14429	146.44531	496.27634	1007.11407	27.09112	540.09393	739.35455	-17.28095	471.78421	711.50836	-10.57775	0.00000	0.00000	0.00000	0.00000	0.00000	0.00000	458.43695	484.47372	61.62721	476.14874	454.04221	214.98462	523.39703	387.02600	48.45668	516.14740	342.67499	50.66611	460.77066	389.01047	59.54140	465.74384	346.62268	56.05545	496.86142	83.93155	111.08802	467.33221	81.21212	193.12247	550.96985	40.45995	156.51614	355.50189	32.31881	174.73145	327.91544	51.32159	146.75681	377.16434	33.00978	84.04437
1188	4.74800	659.16992	1009.10968	227.89983	506.39850	988.82599	361.30917	534.03815	751.86151	394.35959	520.23828	705.91559	390.38507	478.29816	765.16809	377.66797	473.65952	719.35889	371.88116	474.78754	468.89142	334.66895	512.01837	354.55328	270.83179	567.82135	446.58417	336.51227	604.71899	417.01987	342.02069	532.79730	395.60144	334.96661	571.35370	370.38547	327.39462	810.35370	237.52185	312.17935	0.00000	0.00000	0.00000	892.42554	261.63309	268.10309	804.03326	112.59814	322.72726	764.96234	74.68327	252.68976	799.87726	99.08884	214.68614	654.13147	1019.07361	145.87587	492.03915	1007.43457	26.92541	537.41364	739.60315	-17.34636	469.24771	711.54572	-11.57324	0.00000	0.00000	0.00000	0.00000	0.00000	0.00000	457.36780	484.33362	61.50840	468.81448	454.74460	215.88434	522.80286	387.13165	48.45965	515.79669	342.93765	50.55164	460.08896	388.93896	59.45692	465.02750	346.56424	55.97326	496.83676	83.92652	111.10604	467.37051	81.20082	193.17703	550.94592	40.43230	156.54195	355.47824	32.26942	174.73990	327.89301	51.30011	146.75101	377.18314	33.00245	84.03408
1189	4.75200	655.34222	1009.91803	227.31425	502.91159	989.19751	361.27094	528.41919	752.77087	394.18069	514.38586	706.87494	390.45145	473.02277	766.45300	377.57062	467.79056	720.74066	371.79431	466.01349	470.36884	334.85272	505.02057	356.95819	272.70700	558.70422	447.58304	336.63229	595.30713	417.74045	342.08026	523.30182	396.76926	335.08212	561.71930	371.42319	327.68466	799.79761	236.83034	311.90314	0.00000	0.00000	0.00000	882.24756	259.44522	267.76471	791.32239	112.17216	322.99173	751.57068	75.49841	253.40036	787.03882	98.26782	215.03853	650.13379	1019.94794	145.29999	487.85257	1008.02222	26.80717	534.67401	739.78217	-17.47271	466.32065	711.41589	-11.53182	0.00000	0.00000	0.00000	0.00000	0.00000	0.00000	456.28241	484.15820	61.35822	459.66272	456.28705	215.97224	522.23492	387.23907	48.47842	515.47400	343.19766	50.45338	459.44504	388.86246	59.35003	464.31332	346.50357	55.89669	496.81674	83.92882	111.09475	467.37683	81.19599	193.28505	550.95453	40.41343	156.56339	355.45114	32.21535	174.74727	327.86984	51.28098	146.74419	377.17966	32.98626	84.01294
1190	4.75600	651.53467	1010.73431	226.69302	499.88971	989.69110	361.40033	522.90131	753.64648	394.00943	508.52148	707.84796	390.46713	467.67389	767.78296	377.42776	461.98209	722.13171	371.69946	457.19916	471.86734	334.95074	497.98090	359.31558	274.59796	549.59882	448.49637	336.63144	586.04712	418.42566	342.15848	513.90045	397.95511	335.14746	552.07953	372.39902	327.95334	789.11249	235.92642	311.65018	0.00000	0.00000	0.00000	871.97955	257.08096	267.40857	778.06781	111.65144	323.29126	737.93347	76.25854	254.14281	773.98688	97.33121	215.37558	646.17926	1020.79559	144.72989	483.80099	1008.12482	26.57054	532.05670	739.97308	-17.66325	465.46191	711.89429	-12.72883	0.00000	0.00000	0.00000	0.00000	0.00000	0.00000	455.33929	483.99710	61.13967	450.42386	457.90720	216.09764	521.68475	387.34763	48.50689	515.16620	343.44778	50.37040	458.83875	388.78009	59.21542	463.60025	346.44064	55.82544	496.79602	83.89381	111.14297	467.46823	81.16131	193.43970	550.97681	40.40742	156.57220	355.42081	32.15704	174.75378	327.84592	51.26378	146.73640	377.19992	32.95480	83.99916
